<svg height="512" viewBox="0 0 20.977 22.37" width="512" xmlns="http://www.w3.org/2000/svg"><g id="Layer_2" data-name="Layer 2"><g id="Layer_1-2" data-name="Layer 1"><g id="price_tag" data-name="price tag"><path d="m8.112 1.742h9.191v16.218h-9.191z" fill="#525c6b" transform="matrix(.839 -.544 .544 .839 -3.315 8.506)"/><path d="m10.956 4.721a1.323 1.323 0 0 1 -2.22 1.44 1.323 1.323 0 0 1 2.22-1.44z" fill="#fff"/><path d="m14.771 6.742h1.03v7.767h-1.03z" fill="#e2e2e2" transform="matrix(.839 -.544 .544 .839 -3.321 10.029)"/><path d="m13.022 12.173h1.029v3.848h-1.029z" fill="#e2e2e2" transform="matrix(.839 -.545 .545 .839 -5.494 9.646)"/><path d="m8.851 22.37h-6.851a2 2 0 0 1 -2-2v-12.76a2 2 0 0 1 .856-1.64l3.426-2.386a2 2 0 0 1 2.285 0l3.426 2.386a2 2 0 0 1 .857 1.64v12.761a2 2 0 0 1 -1.999 1.999z" fill="#f87670"/><path d="m6.987 6.883a1.563 1.563 0 0 1 -3.125 0 1.563 1.563 0 0 1 3.125 0z" fill="#fff"/><g fill="#525c6b"><path d="m2.536 12.606h5.958v.858h-5.958z"/><path d="m2.536 10.195h5.958v.859h-5.958z"/><path d="m2.536 15.015h4.699v.858h-4.699z"/></g><path d="m2.537 17.479h5.957v2.457h-5.957z" fill="#e2e2e2"/><path d="m6.119 6.556c-1.755.05-3.946-1.082-3.939-2.864.047-3.081 5.6-3.8 7.333-1.434l.719-.468c-2.195-3.063-8.865-2.043-8.911 1.902-.021 2.538 3.186 4.077 5.579 3.669a1.454 1.454 0 0 0 .028-.871 5.267 5.267 0 0 1 -.809.066z" fill="#ffbd66"/><path d="m10 4.133a2.546 2.546 0 0 1 -.776 1.3l.709.494a3.4 3.4 0 0 0 .858-1.412 1.315 1.315 0 0 0 -.791-.382z" fill="#ffbd66"/></g></g></g></svg>