<svg id="Capa_1" enable-background="new 0 0 512 512" height="512" viewBox="0 0 512 512" width="512" xmlns="http://www.w3.org/2000/svg"><g><path d="m173.42 256c0 45.608 36.973 82.581 82.581 82.581s82.581-36.973 82.581-82.581-36.973-82.581-82.581-82.581-82.581 36.973-82.581 82.581zm33.032 0c0-27.365 22.183-49.548 49.548-49.548s49.548 22.183 49.548 49.548c0 27.364-22.183 49.548-49.548 49.548s-49.548-22.184-49.548-49.548z" fill="#eceaec"/><path d="m367.686 157.845c-2.066-2.355-4.219-4.66-6.467-6.908-2.247-2.247-4.553-4.401-6.908-6.466-4.807-4.216-12.016-4.184-16.883-.038l-17.18 14.635c-12.255-8.126-26.115-14.019-41.03-17.037l-1.796-22.454c-.51-6.372-5.585-11.492-11.965-11.91-3.126-.205-6.279-.312-9.457-.312s-6.331.107-9.457.312c-6.38.418-11.455 5.538-11.965 11.91l-1.796 22.454c-14.915 3.018-28.775 8.911-41.03 17.037l-17.18-14.635c-4.867-4.146-12.075-4.177-16.883.038-2.355 2.066-4.66 4.219-6.908 6.466s-4.401 4.552-6.467 6.908c-4.216 4.806-4.184 12.016-.038 16.883l14.635 17.18c-8.126 12.255-14.019 26.115-17.037 41.03l-22.454 1.796c-6.373.51-11.493 5.585-11.911 11.965-.205 3.127-.312 6.279-.312 9.457s.107 6.331.312 9.457c.418 6.38 5.538 11.455 11.911 11.965l22.454 1.796c3.018 14.915 8.911 28.776 17.037 41.03l-14.635 17.18c-4.146 4.867-4.177 12.076.038 16.883 2.066 2.355 4.219 4.66 6.467 6.908s4.553 4.401 6.908 6.466c4.807 4.216 12.016 4.184 16.883.039l17.18-14.635c5.973 3.961 12.328 7.391 19.001 10.216l88.228-5.354 57.774-55.167 5.601-94.214c-2.633-5.879-5.739-11.5-9.266-16.819l14.635-17.18c4.145-4.866 4.177-12.075-.039-16.882zm-111.685 164.22c-27.725 0-51.461-17.078-61.262-41.289l-16.084-20.188c0-36.486 40.859-80.145 77.345-80.145l16.575 11.589c28.464 7.354 49.489 33.206 49.489 63.968.001 36.486-29.577 66.065-66.063 66.065z" fill="#dbd8db"/><path d="m302.03 20.402c-.874 3.262-.708 6.559.296 9.536 1.707 5.064 11.913 7.918 11.913 7.918l16.833-13.575s.419-12.445-7.734-15.229c-.354-.121-.714-.23-1.08-.329-8.81-2.361-17.867 2.868-20.228 11.679z" fill="#eceaec"/><path d="m256.001 512c-141.161 0-256-114.839-256-256s114.839-256 256-256c9.121 0 16.516 7.395 16.516 16.516 0 .217-.004.433-.012.648l-16.504 10.483c-122.944 0-230.901 105.409-230.901 228.353s107.958 228.95 230.901 228.95c57.524 0 116.464-23.271 158.093-62.932l18.615-4.411c.139.136.277.276.413.418 6.29 6.605 6.04 17.065-.565 23.355-47.806 45.539-110.508 70.62-176.556 70.62z" fill="#98db7c"/><path d="m409.767 417.46c-41.629 39.661-96.242 61.508-153.766 61.508-122.944 0-222.968-100.024-222.968-222.968s100.024-222.968 222.968-222.968c8.907 0 16.167-7.043 16.504-15.868-5.443-.37-10.967-.648-16.504-.648-132.263 0-239.484 107.22-239.484 239.484 0 132.263 107.221 239.484 239.484 239.484 69.956 0 132.923-30.046 176.708-77.877-6.341-6.198-16.481-6.301-22.942-.147z" fill="#77cc7d"/><path d="m323.338 9.052c.997 2.972 1.158 6.331.286 9.586-2.361 8.811-11.417 14.04-20.228 11.679-.375-.1-.708-.255-1.07-.379 1.702 5.073 5.827 9.203 11.383 10.692 8.811 2.361 17.867-2.868 20.228-11.678 2.261-8.437-2.461-17.107-10.599-19.9z" fill="#dbd8db"/><path d="m232.499 352.289c11.86 2.888 24.555 3.641 37.66 1.823 40.988-5.688 74.724-37.398 82.905-77.962 3.225-15.989 2.485-31.404-1.308-45.578-2.369-8.851 2.226-18.124 10.599-21.845 3.434 7.667 6.062 15.768 7.771 24.211l22.454 1.796c6.373.51 11.493 5.586 11.911 11.966.205 3.126.312 6.278.312 9.456s-.107 6.33-.312 9.456c-.418 6.38-5.537 11.456-11.911 11.966l-22.454 1.796c-3.018 14.915-8.911 28.776-17.037 41.03l14.635 17.18c4.146 4.867 4.177 12.077-.039 16.883-2.066 2.355-4.219 4.66-6.466 6.907s-4.553 4.401-6.908 6.466c-4.807 4.216-12.016 4.185-16.883.039l-17.18-14.635c-12.255 8.126-26.114 14.019-41.03 17.037l-1.796 22.453c-.51 6.372-5.584 11.491-11.962 11.91-3.127.205-6.281.313-9.46.313s-6.333-.107-9.46-.313c-6.378-.419-11.452-5.538-11.962-11.91l-1.796-22.453c-7.646-1.547-15.012-3.849-22.029-6.82l.106-.251c3.564-8.462 12.718-13.093 21.64-10.921z" fill="#c9c5c9"/><path d="m247.831 173.818c2.131-.208 4.247-.333 6.345-.379 10.174-.222 18.4 8.416 18.4 18.593-14.386-3.711-30.506-3.189-47.715 6.238-17.364 9.512-30.32 26.238-33.84 45.721-2.377 13.157-.774 25.7 3.717 36.785l-2.328-.002c-9.551 0-17.672-7.198-18.599-16.704-.54-5.535-.532-11.231.086-17.035 4.079-38.344 35.555-69.475 73.934-73.217z" fill="#c9c5c9"/><path d="m359.788 44.328c-.874 3.262-.708 6.559.296 9.536 1.707 5.064 11.913 7.918 11.913 7.918l16.833-13.575s.419-12.445-7.734-15.229c-.354-.121-.714-.23-1.08-.329-8.811-2.361-17.867 2.868-20.228 11.679z" fill="#eceaec"/><path d="m381.096 32.977c.997 2.972 1.158 6.331.286 9.586-2.361 8.811-11.417 14.04-20.228 11.679-.375-.1-.708-.255-1.07-.379 1.702 5.073 5.827 9.203 11.383 10.692 8.811 2.361 17.867-2.868 20.228-11.678 2.261-8.437-2.461-17.106-10.599-19.9z" fill="#dbd8db"/><path d="m409.384 82.389c-.874 3.262-.708 6.559.296 9.536 1.707 5.064 11.913 7.918 11.913 7.918l16.833-13.575s.419-12.445-7.734-15.229c-.354-.121-.714-.23-1.08-.329-8.811-2.361-17.867 2.868-20.228 11.679z" fill="#eceaec"/><path d="m430.692 71.039c.997 2.972 1.158 6.331.286 9.586-2.361 8.811-11.417 14.04-20.228 11.679-.375-.1-.708-.255-1.07-.379 1.702 5.073 5.827 9.203 11.383 10.692 8.811 2.361 17.867-2.868 20.228-11.678 2.26-8.437-2.461-17.107-10.599-19.9z" fill="#dbd8db"/><path d="m447.445 131.985c-.874 3.262-.708 6.559.296 9.536 1.707 5.064 11.913 7.918 11.913 7.918l16.833-13.575s.419-12.445-7.734-15.229c-.354-.121-.714-.23-1.08-.329-8.811-2.361-17.867 2.868-20.228 11.679z" fill="#eceaec"/><path d="m468.753 120.635c.997 2.972 1.158 6.331.286 9.586-2.361 8.811-11.417 14.04-20.228 11.679-.374-.1-.708-.255-1.07-.379 1.702 5.073 5.827 9.203 11.383 10.692 8.811 2.361 17.867-2.868 20.228-11.678 2.261-8.437-2.461-17.107-10.599-19.9z" fill="#dbd8db"/><path d="m471.371 189.742c-.874 3.262-.708 6.559.296 9.536 1.707 5.064 11.913 7.918 11.913 7.918l16.833-13.575s.419-12.445-7.734-15.229c-.354-.121-.714-.23-1.08-.329-8.811-2.36-17.867 2.869-20.228 11.679z" fill="#eceaec"/><path d="m492.679 178.392c.997 2.972 1.158 6.331.286 9.586-2.361 8.811-11.417 14.04-20.228 11.679-.375-.1-.708-.255-1.07-.379 1.702 5.073 5.827 9.203 11.383 10.692 8.811 2.361 17.867-2.868 20.228-11.678 2.261-8.437-2.461-17.106-10.599-19.9z" fill="#dbd8db"/><path d="m479.527 251.729c-.874 3.262-.708 6.559.296 9.536 1.707 5.064 11.913 7.918 11.913 7.918l16.833-13.575s.419-12.445-7.734-15.229c-.354-.121-.714-.23-1.08-.329-8.811-2.36-17.867 2.869-20.228 11.679z" fill="#eceaec"/><path d="m500.835 240.379c.997 2.972 1.158 6.331.286 9.586-2.361 8.811-11.417 14.04-20.228 11.679-.374-.1-.708-.255-1.07-.379 1.702 5.073 5.827 9.203 11.383 10.692 8.811 2.361 17.867-2.868 20.228-11.678 2.261-8.437-2.461-17.106-10.599-19.9z" fill="#dbd8db"/><path d="m471.371 313.708c-.874 3.262-.708 6.559.296 9.536 1.707 5.064 11.913 7.918 11.913 7.918l16.833-13.575s.419-12.445-7.734-15.229c-.354-.121-.714-.23-1.08-.329-8.811-2.36-17.867 2.868-20.228 11.679z" fill="#eceaec"/><path d="m492.679 302.358c.997 2.972 1.158 6.331.286 9.586-2.361 8.811-11.417 14.04-20.228 11.679-.375-.1-.708-.255-1.07-.379 1.702 5.073 5.827 9.203 11.383 10.692 8.811 2.361 17.867-2.868 20.228-11.678 2.261-8.437-2.461-17.106-10.599-19.9z" fill="#dbd8db"/><path d="m446.768 372.338c-.874 3.262-.708 6.559.296 9.536 1.707 5.064 11.913 7.918 11.913 7.918l16.833-13.575s.419-12.445-7.734-15.229c-.354-.121-.714-.23-1.08-.329-8.811-2.361-17.868 2.868-20.228 11.679z" fill="#eceaec"/><path d="m468.075 360.987c.997 2.972 1.158 6.331.286 9.586-2.361 8.811-11.417 14.04-20.228 11.679-.375-.1-.708-.255-1.07-.379 1.702 5.073 5.827 9.203 11.383 10.692 8.811 2.361 17.867-2.868 20.228-11.678 2.261-8.436-2.461-17.106-10.599-19.9z" fill="#dbd8db"/></g></svg>