<svg id="Layer_1" enable-background="new 0 0 512 512" height="512" viewBox="0 0 512 512" width="512" xmlns="http://www.w3.org/2000/svg" xmlns:xlink="http://www.w3.org/1999/xlink"><linearGradient id="SVGID_1_" gradientUnits="userSpaceOnUse" x1="256" x2="256" y1="0" y2="511.999"><stop offset="0" stop-color="#01f1fe"/><stop offset="1" stop-color="#4fadfe"/></linearGradient><path d="m380.686 368.301c-39.673 8.762-81.563 13.199-124.686 13.199s-85.013-4.438-124.686-13.199c4.423-35.901 24.042-68.003 54.109-88.412 20.52 14.57 45.262 22.512 70.578 22.512 25.315 0 50.057-7.94 70.576-22.511 30.068 20.41 49.686 52.511 54.109 88.411zm131.314-112.301c0 141.158-114.841 255.999-256 255.999s-256-114.841-256-255.999c0-141.159 114.841-256 256-256s256 114.841 256 256zm-330.03-75.468c0 40.821 33.211 74.032 74.032 74.032s74.032-33.21 74.032-74.032-33.211-74.033-74.032-74.033-74.032 33.211-74.032 74.033zm223.518 196.591c-2.245-50.644-29.704-96.316-73.451-122.176-4.354-2.575-9.853-2.142-13.749 1.079-17.466 14.428-39.586 22.375-62.286 22.375s-44.821-7.946-62.288-22.375c-3.896-3.22-9.396-3.652-13.748-1.079-43.749 25.859-71.209 71.532-73.454 122.177-.254 5.735 3.59 10.848 9.171 12.196 44.45 10.736 91.659 16.18 140.317 16.18s95.867-5.444 140.317-16.181c5.581-1.348 9.425-6.461 9.171-12.196zm-149.486-146.559c27.588 0 50.032-22.444 50.032-50.032s-22.444-50.033-50.032-50.033-50.032 22.445-50.032 50.033 22.444 50.032 50.032 50.032z" fill="url(#SVGID_1_)"/></svg>