<?xml version="1.0" encoding="UTF-8"?>
<svg xmlns="http://www.w3.org/2000/svg" viewBox="0 0 64 64" width="512" height="512"><g id="Icon"><path d="M61.69629,27.71631a29.97743,29.97743,0,0,0-53.80957-13.52L4.74805,12.45215a2.00028,2.00028,0,0,0-2.90137,2.27539l2.62207,9.59668A2.00008,2.00008,0,0,0,6.96,25.71631l8.83594-2.5874a2.00044,2.00044,0,0,0,.54687-3.5835l-3.3291-2.19678A23.98862,23.98862,0,0,1,52.76855,44.02051a.99866.99866,0,0,0,.36426,1.3667l3.46094,2.00341A.99992.99992,0,0,0,57.96,47.02734,29.813,29.813,0,0,0,61.69629,27.71631Z" style="fill:#ff9800"/><path d="M45.28564,29H44.01758a12.63381,12.63381,0,0,0-1.24219-3.01855l.89111-.89112a2.71657,2.71657,0,0,0,0-3.83838l-.91845-.91845a2.71746,2.71746,0,0,0-3.83838,0l-.877.87646A12.68288,12.68288,0,0,0,35,19.9458V18.71436A2.71758,2.71758,0,0,0,32.28564,16h-.57128A2.71758,2.71758,0,0,0,29,18.71436V19.9458A12.68288,12.68288,0,0,0,25.96729,21.21l-.877-.87646a2.71806,2.71806,0,0,0-3.83887,0l-.91748.918a2.72661,2.72661,0,0,0,0,3.83887l.89063.89112A12.65753,12.65753,0,0,0,19.98242,29H18.71436A2.71758,2.71758,0,0,0,16,31.71436v.57128A2.71758,2.71758,0,0,0,18.71436,35h1.2915a12.65666,12.65666,0,0,0,1.251,2.98633l-.92286.92285a2.72728,2.72728,0,0,0-.00048,3.83887l.91845.91845a2.71569,2.71569,0,0,0,3.83838,0l.9375-.9375A12.65553,12.65553,0,0,0,29,43.96045v1.32519A2.71758,2.71758,0,0,0,31.71436,48h.57128A2.71758,2.71758,0,0,0,35,45.28564V43.96045A12.65553,12.65553,0,0,0,37.97217,42.729l.9375.9375a2.71746,2.71746,0,0,0,3.83838,0l.91845-.91845a2.71657,2.71657,0,0,0,0-3.83838l-.92334-.92334A12.63664,12.63664,0,0,0,43.99414,35h1.2915A2.71758,2.71758,0,0,0,48,32.28564v-.57128A2.71758,2.71758,0,0,0,45.28564,29Z" style="fill:#1e88e5"/><circle cx="32" cy="32" r="7" style="fill:#eee"/><path d="M62.15332,49.27246l-2.62207-9.59668A2.00008,2.00008,0,0,0,57.04,38.28369l-8.83594,2.5874a2.00044,2.00044,0,0,0-.54687,3.5835l3.3291,2.19678a23.9785,23.9785,0,0,1-41.965-21.5387L6.96,25.71631a2.00008,2.00008,0,0,1-2.49121-1.39209L3.785,21.82178A29.98559,29.98559,0,0,0,30.3584,61.9585q.79395.04175,1.582.041a29.97416,29.97416,0,0,0,24.17285-12.1958L59.252,51.54785a2.00028,2.00028,0,0,0,2.90137-2.27539Z" style="fill:#e53935"/></g></svg>
