<svg id="Layer_1" enable-background="new 0 0 512 512" height="512" viewBox="0 0 512 512" width="512" xmlns="http://www.w3.org/2000/svg"><g clip-rule="evenodd" fill-rule="evenodd"><g><path d="m461.427 171.241c22.315 0 40.573 18.258 40.573 40.573v236.484c0 22.315-18.258 40.573-40.573 40.573h-410.853c-22.316.001-40.574-18.257-40.574-40.572v-236.484c0-22.315 18.258-40.573 40.573-40.573h410.854z" fill="#92d2fe"/><g fill="#f2f2f2"><path d="m114.753 314.622h282.494c2.754 0 5 2.246 5 5v28.811c0 2.754-2.246 5-5 5h-282.494c-2.754 0-5-2.246-5-5v-28.811c.001-2.754 2.246-5 5-5z"/><path d="m224.494 388.872h63.012c7.225 0 13.135 5.911 13.135 13.135v11.229c0 7.225-5.911 13.135-13.135 13.135h-63.012c-7.225 0-13.135-5.911-13.135-13.135v-11.229c0-7.225 5.91-13.135 13.135-13.135z"/></g></g><g><circle cx="256" cy="140.872" fill="#f2f2f2" r="117.744"/><path d="m283.26 159.835 48.464 11.771c6.466 1.57 10.897 7.165 10.897 13.818v.762c-16.337 31.165-48.993 52.43-86.621 52.43-38.329 0-71.498-22.065-87.516-54.182.416-6.212 4.727-11.313 10.863-12.829l48.464-11.971z" fill="#a2e19f"/><path d="m255.536 187.311c17.793 0 32.871-11.391 35.419-25.607l-7.695-1.869v-15.174-9.929h-55.449v9.928 14.974l-7.276 1.797c2.402 14.344 17.094 25.88 35.001 25.88z" fill="#efca9e"/><path d="m217.495 92.223c1.186 0-3.845-33.755 38.04-33.755 32.257 0 37.31 15.348 37.956 33.755l.085 26.457c0 20.922-17.118 38.041-38.041 38.041-20.922 0-38.04-17.118-38.04-38.041z" fill="#fed9a8"/><path d="m226.769 101.882c-3.212 0-6.321-.437-9.273-1.251 0-.855.008-4.62.027-5.466.435-19.837 6.402-36.697 38.013-36.697 33.963 0 37.769 17.013 38.025 36.698.011.846.015 4.61.015 5.465-11.879 3.274-41.67 4.581-50.012-7.621-3.661 5.356-9.817 8.872-16.795 8.872z" fill="#515151"/></g></g></svg>